<svg width="406" height="396" viewBox="0 0 406 396" fill="none" xmlns="http://www.w3.org/2000/svg">
<path fill-rule="evenodd" clip-rule="evenodd" d="M203 0C90.8425 0 0 90.8425 0 203C0 292.827 58.1087 368.699 138.801 395.596C148.951 397.373 152.757 391.283 152.757 385.954C152.757 381.133 152.504 365.146 152.504 348.145C101.5 357.534 88.305 335.711 84.245 324.292C81.9612 318.456 72.065 300.44 63.4375 295.619C56.3325 291.812 46.1825 282.424 63.1838 282.17C79.17 281.916 90.5888 296.887 94.395 302.977C112.665 333.681 141.846 325.054 153.519 319.725C155.295 306.53 160.624 297.649 166.46 292.574C121.292 287.499 74.095 269.99 74.095 192.342C74.095 170.266 81.9613 151.996 94.9025 137.786C92.8725 132.711 85.7675 111.904 96.9325 83.9912C96.9325 83.9912 113.934 78.6625 152.757 104.799C168.997 100.231 186.253 97.9475 203.508 97.9475C220.763 97.9475 238.018 100.231 254.258 104.799C293.081 78.4088 310.083 83.9912 310.083 83.9912C321.248 111.904 314.143 132.711 312.113 137.786C325.054 151.996 332.92 170.012 332.92 192.342C332.92 270.244 285.469 287.499 240.301 292.574C247.66 298.917 254.004 311.098 254.004 330.129C254.004 357.28 253.75 379.103 253.75 385.954C253.75 391.283 257.556 397.626 267.706 395.596C347.891 368.699 406 292.574 406 203C406 90.8425 315.158 0 203 0Z" fill="#111111"/>
</svg>
